<svg xmlns="http://www.w3.org/2000/svg" viewBox="0 0 500 647.06">
  <defs>
    <style>
      .cls-1, .cls-2, .cls-4 {
        fill: #1a1a1a;
        stroke: #000;
      }

      .cls-1 {
        stroke-miterlimit: 10;
      }

      .cls-1, .cls-2, .cls-3, .cls-4 {
        stroke-width: 0.75px;
      }

      .cls-2 {
        stroke-linejoin: bevel;
      }

      .cls-3 {
        fill: #1a1a1a;
        stroke: #1a1a1a;
        stroke-linecap: round;
      }

      .cls-3, .cls-4 {
        stroke-linejoin: round;
      }
    </style>
  </defs>
  <title>OVR SPL</title>
  <g id="TORSO_STRAIGHT" data-name="TORSO STRAIGHT">
    <g id="_3" data-name="+3">
      <path id="_3-2" data-name="+3" class="cls-1" d="M250,607.42c-18.29,0-104.8-6.14-115.63-16a1.44,1.44,0,0,1-.48-1c-6.55-184.28-7.39-260.1-7.49-263.73v-16c-.15-19.17-.69-50.77-2.64-64.07-3.75-25.54-32.49-89.39-32.49-89.39h0c4.45-9.52,9-17.31,13.61-22.39a120.39,120.39,0,0,1,21.54-18.77q3.53-2.44,7.52-5h0c15.79-9.94,32.32-19,58.44-25.48h0c16.36-.85,38.26,8.75,57.65,8.75s41.29-9.6,57.65-8.75h0c26.12,6.48,42.65,15.54,58.44,25.48h0q4,2.56,7.52,5a120.39,120.39,0,0,1,21.54,18.77c4.56,5.08,9.16,12.87,13.61,22.39h0S380,221.12,376.24,246.66c-1.95,13.3-2.49,44.9-2.64,64.07v16c-.1,3.63-.94,79.45-7.49,263.73a1.44,1.44,0,0,1-.48,1c-10.83,9.86-97.34,16-115.63,16"/>
    </g>
    <g id="_2" data-name="+2">
      <path id="_2-2" data-name="+2" class="cls-1" d="M250,592.42c-18.29,0-104.8-6.14-115.63-16a1.44,1.44,0,0,1-.48-1c-6.55-184.28-7.39-245.1-7.49-248.73v-16c-.15-19.17-.69-50.77-2.64-64.07-3.75-25.54-32.49-89.39-32.49-89.39h0c4.45-9.52,9-17.31,13.61-22.39a120.39,120.39,0,0,1,21.54-18.77q3.53-2.44,7.52-5h0c15.79-9.94,32.32-19,58.44-25.48h0c16.36-.85,38.26,8.75,57.65,8.75s41.29-9.6,57.65-8.75h0c26.12,6.48,42.65,15.54,58.44,25.48h0q4,2.56,7.52,5a120.39,120.39,0,0,1,21.54,18.77c4.56,5.08,9.16,12.87,13.61,22.39h0S380,221.12,376.24,246.66c-1.95,13.3-2.49,44.9-2.64,64.07v16c-.1,3.63-.94,64.45-7.49,248.73a1.44,1.44,0,0,1-.48,1c-10.83,9.86-97.34,16-115.63,16"/>
    </g>
    <g id="_1" data-name="+1">
      <path id="_1-2" data-name="+1" class="cls-1" d="M250,577.42c-18.29,0-104.8-6.14-115.63-16a1.44,1.44,0,0,1-.48-1c-6.55-184.28-7.39-230.1-7.49-233.73v-16c-.15-19.17-.69-50.77-2.64-64.07-3.75-25.54-32.49-89.39-32.49-89.39h0c4.45-9.52,9-17.31,13.61-22.39a120.39,120.39,0,0,1,21.54-18.77q3.53-2.44,7.52-5h0c15.79-9.94,32.32-19,58.44-25.48h0c16.36-.85,38.26,8.75,57.65,8.75s41.29-9.6,57.65-8.75h0c26.12,6.48,42.65,15.54,58.44,25.48h0q4,2.56,7.52,5a120.39,120.39,0,0,1,21.54,18.77c4.56,5.08,9.16,12.87,13.61,22.39h0S380,221.12,376.24,246.66c-1.95,13.3-2.49,44.9-2.64,64.07v16c-.1,3.63-.94,49.45-7.49,233.73a1.44,1.44,0,0,1-.48,1c-10.83,9.86-97.34,16-115.63,16"/>
    </g>
    <g id="_0" data-name="+0">
      <path id="_0-2" data-name="+0" class="cls-1" d="M250,562.42c-18.29,0-104.8-6.14-115.63-16a1.44,1.44,0,0,1-.48-1c-6.55-184.28-7.39-215.1-7.49-218.73v-16c-.15-19.17-.69-50.77-2.64-64.07-3.75-25.54-32.49-89.39-32.49-89.39h0c4.45-9.52,9-17.31,13.61-22.39a120.39,120.39,0,0,1,21.54-18.77q3.53-2.44,7.52-5h0c15.79-9.94,32.32-19,58.44-25.48h0c16.36-.85,38.26,8.75,57.65,8.75s41.29-9.6,57.65-8.75h0c26.12,6.48,42.65,15.54,58.44,25.48h0q4,2.56,7.52,5a120.39,120.39,0,0,1,21.54,18.77c4.56,5.08,9.16,12.87,13.61,22.39h0S380,221.12,376.24,246.66c-1.95,13.3-2.49,44.9-2.64,64.07v16c-.1,3.63-.94,34.45-7.49,218.73a1.44,1.44,0,0,1-.48,1c-10.83,9.86-97.34,16-115.63,16"/>
    </g>
    <g id="_-1" data-name="-1">
      <path id="_-1-2" data-name="-1" class="cls-1" d="M250,547.42c-18.29,0-104.8-6.14-115.63-16a1.44,1.44,0,0,1-.48-1c-6.55-184.28-7.39-200.1-7.49-203.73v-16c-.15-19.17-.69-50.77-2.64-64.07-3.75-25.54-32.49-89.39-32.49-89.39h0c4.45-9.52,9-17.31,13.61-22.39a120.39,120.39,0,0,1,21.54-18.77q3.53-2.44,7.52-5h0c15.79-9.94,32.32-19,58.44-25.48h0c16.36-.85,38.26,8.75,57.65,8.75s41.29-9.6,57.65-8.75h0c26.12,6.48,42.65,15.54,58.44,25.48h0q4,2.56,7.52,5a120.39,120.39,0,0,1,21.54,18.77c4.56,5.08,9.16,12.87,13.61,22.39h0S380,221.12,376.24,246.66c-1.95,13.3-2.49,44.9-2.64,64.07v16c-.1,3.63-.94,19.45-7.49,203.73a1.44,1.44,0,0,1-.48,1c-10.83,9.86-97.34,16-115.63,16"/>
    </g>
    <g id="_-2" data-name="-2">
      <path id="_-2-2" data-name="-2" class="cls-1" d="M250,532.42c-18.29,0-104.8-6.14-115.63-16a1.44,1.44,0,0,1-.48-1c-6.55-184.28-7.39-185.1-7.49-188.73v-16c-.15-19.17-.69-50.77-2.64-64.07-3.75-25.54-32.49-89.39-32.49-89.39h0c4.45-9.52,9-17.31,13.61-22.39a120.39,120.39,0,0,1,21.54-18.77q3.53-2.44,7.52-5h0c15.79-9.94,32.32-19,58.44-25.48h0c16.36-.85,38.26,8.75,57.65,8.75s41.29-9.6,57.65-8.75h0c26.12,6.48,42.65,15.54,58.44,25.48h0q4,2.56,7.52,5a120.39,120.39,0,0,1,21.54,18.77c4.56,5.08,9.16,12.87,13.61,22.39h0S380,221.12,376.24,246.66c-1.95,13.3-2.49,44.9-2.64,64.07v16c-.1,3.63-.94,4.45-7.49,188.73a1.44,1.44,0,0,1-.48,1c-10.83,9.86-97.34,16-115.63,16"/>
    </g>
    <g id="_-3" data-name="-3">
      <path id="_-3-2" data-name="-3" class="cls-1" d="M250,517.42c-18.29,0-104.8-6.14-115.63-16a1.44,1.44,0,0,1-.48-1c-6.55-184.28-7.39-170.1-7.49-173.73v-16c-.15-19.17-.69-50.77-2.64-64.07-3.75-25.54-32.49-89.39-32.49-89.39h0c4.45-9.52,9-17.31,13.61-22.39a120.39,120.39,0,0,1,21.54-18.77q3.53-2.44,7.52-5h0c15.79-9.94,32.32-19,58.44-25.48h0c16.36-.85,38.26,8.75,57.65,8.75s41.29-9.6,57.65-8.75h0c26.12,6.48,42.65,15.54,58.44,25.48h0q4,2.56,7.52,5a120.39,120.39,0,0,1,21.54,18.77c4.56,5.08,9.16,12.87,13.61,22.39h0S380,221.12,376.24,246.66c-1.95,13.3-2.49,44.9-2.64,64.07v16c-.1,3.63-.94-10.55-7.49,173.73a1.44,1.44,0,0,1-.48,1c-10.83,9.86-97.34,16-115.63,16"/>
    </g>
  </g>
  <g id="SLEEVES">
    <g id="_2-3" data-name="+2">
      <g id="F_2" data-name="F+2">
        <path class="cls-2" d="M373.66,356.35V340.73c.15-19.17.69-80.77,2.64-94.07,3.75-25.54,32.49-89.39,32.49-89.39h-.05c19.43,41.56,36.1,146.27,35.17,174.25v.31a2.24,2.24,0,0,1-1.53,2l-68.45,22.42a.48.48,0,0,0-.33.44"/>
        <path class="cls-2" d="M126.44,356.69a.48.48,0,0,0-.33-.44L57.66,333.83a2.24,2.24,0,0,1-1.53-2v-.31c-.93-28,15.74-132.69,35.17-174.25h0s28.74,63.85,32.49,89.39c2,13.3,2.49,74.9,2.64,94.07v15.62"/>
      </g>
    </g>
    <g id="_1-3" data-name="+1">
      <g id="F_1" data-name="F+1">
        <path class="cls-2" d="M373.66,341.35V325.73c.15-19.17.69-65.77,2.64-79.07,3.75-25.54,32.49-89.39,32.49-89.39h-.05c19.43,41.56,36.1,131.27,35.17,159.25v.31a2.24,2.24,0,0,1-1.53,2l-68.45,22.42a.48.48,0,0,0-.33.44"/>
        <path class="cls-2" d="M126.44,341.69a.48.48,0,0,0-.33-.44L57.66,318.83a2.24,2.24,0,0,1-1.53-2v-.31c-.93-28,15.74-117.69,35.17-159.25h0s28.74,63.85,32.49,89.39c2,13.3,2.49,59.9,2.64,79.07v15.62"/>
      </g>
    </g>
    <g id="_0-3" data-name="+0">
      <g id="F_0" data-name="F+0">
        <path class="cls-2" d="M373.66,326.35V310.73c.15-19.17.69-50.77,2.64-64.07,3.75-25.54,32.49-89.39,32.49-89.39h-.05c19.43,41.56,36.1,116.27,35.17,144.25v.31a2.24,2.24,0,0,1-1.53,2l-68.45,22.42a.48.48,0,0,0-.33.44"/>
        <path class="cls-2" d="M126.44,326.69a.48.48,0,0,0-.33-.44L57.66,303.83a2.24,2.24,0,0,1-1.53-2v-.31c-.93-28,15.74-102.69,35.17-144.25h0s28.74,63.85,32.49,89.39c2,13.3,2.49,44.9,2.64,64.07v15.62"/>
      </g>
    </g>
    <g id="_-1-3" data-name="-1">
      <g id="F-1">
        <path class="cls-2" d="M373.66,311.35V295.73c.15-19.17.69-35.77,2.64-49.07,3.75-25.54,32.49-89.39,32.49-89.39h-.05c19.43,41.56,36.1,101.27,35.17,129.25v.31a2.24,2.24,0,0,1-1.53,2l-68.45,22.42a.48.48,0,0,0-.33.44"/>
        <path class="cls-2" d="M126.44,311.69a.48.48,0,0,0-.33-.44L57.66,288.83a2.24,2.24,0,0,1-1.53-2v-.31c-.93-28,15.74-87.69,35.17-129.25h0s28.74,63.85,32.49,89.39c2,13.3,2.49,29.9,2.64,49.07v15.62"/>
      </g>
    </g>
    <g id="_-2-3" data-name="-2">
      <g id="F-2">
        <path class="cls-2" d="M373.66,296.35V280.73c.15-19.17.69-20.77,2.64-34.07,3.75-25.54,32.49-89.39,32.49-89.39h-.05c19.43,41.56,36.1,86.27,35.17,114.25v.31a2.24,2.24,0,0,1-1.53,2l-68.45,22.42a.48.48,0,0,0-.33.44"/>
        <path class="cls-2" d="M126.44,296.69a.48.48,0,0,0-.33-.44L57.66,273.83a2.24,2.24,0,0,1-1.53-2v-.31c-.93-28,15.74-72.69,35.17-114.25h0s28.74,63.85,32.49,89.39c2,13.3,2.49,14.9,2.64,34.07v15.62"/>
      </g>
    </g>
  </g>
  <g id="COLLAR">
    <path id="Collar_Shading" data-name="Collar Shading" class="cls-3" d="M194.48,92.78c9.64,26.73,36.19,36.05,55.49,36.05s45.91-9.33,55.52-36.1c-19.07,5.46-44.89,10.42-55.26,10.42h-.54c-10.35,0-36.13-4.93-55.22-10.38"/>
    <g id="_3_collar" data-name="3 collar">
      <g id="_3_collar-2" data-name="3 collar">
        <path class="cls-1" d="M250.17,103.54c13.1,0,51-7.85,68.7-14.69,0,0-12.39-4.85-17.43-6.09-16.39-.92-31.85,5.07-51.28,5.07s-34.89-6-51.28-5.07c-5,1.24-17.43,6.09-17.43,6.09,17.74,6.84,55.6,14.69,68.7,14.69"/>
        <path id="high_collar-2" data-name="high collar-2" class="cls-4" d="M250.33,122.21c19.53,0,42.67-9.18,51.28-39.57L319,88.85c-12.44,43.91-52.85,51.21-68.71,51.21H250c-15.86,0-56.27-7.3-68.71-51.21l17.43-6.21c8.61,30.39,31.75,39.57,51.28,39.57Z"/>
      </g>
    </g>
    <g id="_2_collar" data-name="2 collar">
      <g id="_2_collar-2" data-name="2 collar">
        <path class="cls-1" d="M250.16,90.83c19.44,0,37.89-7,54.28-6.11,5,1.24,14.43,4.09,14.43,4.09-17.74,6.84-55.88,14.73-69,14.73s-50.7-7.85-68.44-14.69c0,0,9.39-2.85,14.43-4.09C212.27,83.84,230.73,90.83,250.16,90.83Z"/>
        <path id="high_collar-2-2" data-name="high collar-2" class="cls-4" d="M250,140.06c15.86,0,56.27-7.3,68.71-51.21l-14.43-4.21C295.66,115,269.52,125.21,250,125.21S204.32,115,195.71,84.64l-14.43,4.21C193.72,132.76,234.13,140.06,250,140.06Z"/>
      </g>
    </g>
    <g id="_1_collar" data-name="1 collar">
      <g id="_1_collar-2" data-name="1 collar">
        <path class="cls-1" d="M250,94.38c19.44,0,41.27-9.63,57.65-8.75,5,1.24,11.05,3.18,11.05,3.18-17.7,6.84-55.36,14.73-68.43,14.73h-.54c-13.07,0-50.7-7.85-68.44-14.69,0,0,6-1.94,11.05-3.18C208.72,84.75,230.55,94.38,250,94.38Z"/>
        <path class="cls-4" d="M250,140.06c15.86,0,56.27-7.3,68.71-51.21l-11.05-3.22c-7,32.54-36.63,43.59-57.65,43.59s-50.62-11-57.65-43.59l-11,3.22C193.72,132.76,234.13,140.06,250,140.06Z"/>
      </g>
    </g>
  </g>
  <g id="Logo">
    <g>
      <g>
        <path d="M307.27,201.69a3.89,3.89,0,0,1,2.8,1,3.64,3.64,0,0,1,.57,4.47,3.62,3.62,0,0,1-3.36,1.68,3.92,3.92,0,0,1-2.78-1,3.72,3.72,0,0,1-.84-1.25,3.79,3.79,0,0,1-.25-1.34,3.54,3.54,0,0,1,3.86-3.56Zm0,1.16a2.48,2.48,0,0,0-1.69.58,2.29,2.29,0,0,0-.81,1.82,2.25,2.25,0,0,0,.81,1.8,2.51,2.51,0,0,0,1.7.59,2.49,2.49,0,0,0,1.69-.59,2.2,2.2,0,0,0,.62-.85,2.46,2.46,0,0,0-.62-2.77A2.61,2.61,0,0,0,307.28,202.85Z"/>
        <path d="M319.24,206.19a2.84,2.84,0,0,1-.38,1.64c-.47.65-1.45,1-2.94,1a4.72,4.72,0,0,1-2.47-.53,1.68,1.68,0,0,1-.67-.84,3.82,3.82,0,0,1-.19-1.25v-4.38h1.34v4a4.47,4.47,0,0,0,.07.88,1,1,0,0,0,.27.47,3.07,3.07,0,0,0,3.42,0,.91.91,0,0,0,.26-.47,3.8,3.8,0,0,0,.07-.88v-4h1.22Z"/>
        <path d="M324.27,202.94v5.74h-1.34v-5.74h-2.66v-1.13h6.66v1.13Z"/>
        <path d="M329.43,207.56h4.76v1.12h-6.1v-6.87h1.34Z"/>
        <path d="M335.39,201.81h1.34v6.87h-1.34Z"/>
        <path d="M340,204v4.7h-1.22v-6.87H340l4.53,4.61v-4.61h1.22v6.87h-1.09Z"/>
        <path d="M349.09,205.67v1.89h5v1.12h-6.29v-6.87h6.17v1.13h-4.83v1.63h3.32v1.1Z"/>
      </g>
      <g>
        <line x1="352.05" y1="205.07" x2="303.89" y2="205.07"/>
        <rect x="303.89" y="204.56" width="48.16" height="1.03"/>
      </g>
    </g>
  </g>
</svg>
