<svg xmlns="http://www.w3.org/2000/svg" viewBox="0 0 500 647.06">
  <defs>
    <style>
      .cls-1, .cls-2, .cls-3 {
        fill: #333;
        stroke: #000;
      }

      .cls-1 {
        stroke-linejoin: round;
      }

      .cls-1, .cls-2 {
        stroke-width: 0.75px;
      }

      .cls-2, .cls-3 {
        stroke-miterlimit: 10;
      }
    </style>
  </defs>
  <title>OVR STR</title>
  <g id="TORSO_STRAIGHT" data-name="TORSO STRAIGHT">
    <g id="_3" data-name="+3">
      <path id="_3-2" data-name="+3" class="cls-1" d="M250,608.9c18.3,0,104.8-6.14,115.63-16a1.39,1.39,0,0,0,.48-1c6.56-184.29,7.39-260.11,7.5-263.73v-.33s0-6.36.05-15.62c.14-19.17.68-50.77,2.64-64.07,3.74-25.54,32.48-89.39,32.48-89.39-4.46-9.54-9.06-17.34-13.63-22.43a119.89,119.89,0,0,0-21.54-18.77q-3.54-2.44-7.53-5h0c-15.78-9.94-32.32-19-58.43-25.48-.06,0,.06,0,0,0S279.19,95.84,250,95.84s-57.65-8.75-57.65-8.75.06,0,0,0c-26.11,6.46-42.65,15.54-58.44,25.48h0c-2.65,1.67-5.17,3.33-7.52,5a119.54,119.54,0,0,0-21.54,18.77c-4.57,5.09-9.17,12.89-13.63,22.43,0,0,28.74,63.85,32.48,89.39,2,13.3,2.5,44.9,2.64,64.07.07,9.26,0,15.62,0,15.62v.33c.11,3.62.94,79.44,7.49,263.73a1.47,1.47,0,0,0,.48,1c10.83,9.87,97.34,16,115.63,16"/>
    </g>
    <g id="_2" data-name="+2">
      <path id="_2-2" data-name="+2" class="cls-1" d="M250,593.9c18.3,0,104.8-6.14,115.63-16a1.39,1.39,0,0,0,.48-1c6.56-184.29,7.39-245.11,7.5-248.73v-.33s0-6.36.05-15.62c.14-19.17.68-50.77,2.64-64.07,3.74-25.54,32.48-89.39,32.48-89.39-4.46-9.54-9.06-17.34-13.63-22.43a119.89,119.89,0,0,0-21.54-18.77q-3.54-2.44-7.53-5h0c-15.78-9.94-32.32-19-58.43-25.48-.06,0,.06,0,0,0S279.19,95.84,250,95.84s-57.65-8.75-57.65-8.75.06,0,0,0c-26.11,6.46-42.65,15.54-58.44,25.48h0c-2.65,1.67-5.17,3.33-7.52,5a119.54,119.54,0,0,0-21.54,18.77c-4.57,5.09-9.17,12.89-13.63,22.43,0,0,28.74,63.85,32.48,89.39,2,13.3,2.5,44.9,2.64,64.07.07,9.26,0,15.62,0,15.62v.33c.11,3.62.94,64.44,7.49,248.73a1.47,1.47,0,0,0,.48,1c10.83,9.87,97.34,16,115.63,16"/>
    </g>
    <g id="_1" data-name="+1">
      <path id="_1-2" data-name="+1" class="cls-1" d="M250,578.9c18.3,0,104.8-6.14,115.63-16a1.39,1.39,0,0,0,.48-1c6.56-184.29,7.39-230.11,7.5-233.73v-.33s0-6.36.05-15.62c.14-19.17.68-50.77,2.64-64.07,3.74-25.54,32.48-89.39,32.48-89.39-4.46-9.54-9.06-17.34-13.63-22.43a119.89,119.89,0,0,0-21.54-18.77q-3.54-2.44-7.53-5h0c-15.78-9.94-32.32-19-58.43-25.48-.06,0,.06,0,0,0S279.19,95.84,250,95.84s-57.65-8.75-57.65-8.75.06,0,0,0c-26.11,6.46-42.65,15.54-58.44,25.48h0c-2.65,1.67-5.17,3.33-7.52,5a119.54,119.54,0,0,0-21.54,18.77c-4.57,5.09-9.17,12.89-13.63,22.43,0,0,28.74,63.85,32.48,89.39,2,13.3,2.5,44.9,2.64,64.07.07,9.26,0,15.62,0,15.62v.33c.11,3.62.94,49.44,7.49,233.73a1.47,1.47,0,0,0,.48,1c10.83,9.87,97.34,16,115.63,16"/>
    </g>
    <g id="_0" data-name="+0">
      <path id="_0-2" data-name="+0" class="cls-1" d="M250,563.9c18.3,0,104.8-6.14,115.63-16a1.39,1.39,0,0,0,.48-1c6.56-184.29,7.39-215.11,7.5-218.73v-.33s0-6.36.05-15.62c.14-19.17.68-50.77,2.64-64.07,3.74-25.54,32.48-89.39,32.48-89.39-4.46-9.54-9.06-17.34-13.63-22.43a119.89,119.89,0,0,0-21.54-18.77q-3.54-2.44-7.53-5h0c-15.78-9.94-32.32-19-58.43-25.48-.06,0,.06,0,0,0S279.19,95.84,250,95.84s-57.65-8.75-57.65-8.75.06,0,0,0c-26.11,6.46-42.65,15.54-58.44,25.48h0c-2.65,1.67-5.17,3.33-7.52,5a119.54,119.54,0,0,0-21.54,18.77c-4.57,5.09-9.17,12.89-13.63,22.43,0,0,28.74,63.85,32.48,89.39,2,13.3,2.5,44.9,2.64,64.07.07,9.26,0,15.62,0,15.62v.33c.11,3.62.94,34.44,7.49,218.73a1.47,1.47,0,0,0,.48,1c10.83,9.87,97.34,16,115.63,16"/>
    </g>
    <g id="_-1" data-name="-1">
      <path id="_-1-2" data-name="-1" class="cls-1" d="M250,548.9c18.3,0,104.8-6.14,115.63-16a1.39,1.39,0,0,0,.48-1c6.56-184.29,7.39-200.11,7.5-203.73v-.33s0-6.36.05-15.62c.14-19.17.68-50.77,2.64-64.07,3.74-25.54,32.48-89.39,32.48-89.39-4.46-9.54-9.06-17.34-13.63-22.43a119.89,119.89,0,0,0-21.54-18.77q-3.54-2.44-7.53-5h0c-15.78-9.94-32.32-19-58.43-25.48-.06,0,.06,0,0,0S279.19,95.84,250,95.84s-57.65-8.75-57.65-8.75.06,0,0,0c-26.11,6.46-42.65,15.54-58.44,25.48h0c-2.65,1.67-5.17,3.33-7.52,5a119.54,119.54,0,0,0-21.54,18.77c-4.57,5.09-9.17,12.89-13.63,22.43,0,0,28.74,63.85,32.48,89.39,2,13.3,2.5,44.9,2.64,64.07.07,9.26,0,15.62,0,15.62v.33c.11,3.62.94,19.44,7.49,203.73a1.47,1.47,0,0,0,.48,1c10.83,9.87,97.34,16,115.63,16"/>
    </g>
    <g id="_-2" data-name="-2">
      <path id="_-2-2" data-name="-2" class="cls-1" d="M250,533.9c18.3,0,104.8-6.14,115.63-16a1.39,1.39,0,0,0,.48-1c6.56-184.29,7.39-185.11,7.5-188.73v-.33s0-6.36.05-15.62c.14-19.17.68-50.77,2.64-64.07,3.74-25.54,32.48-89.39,32.48-89.39-4.46-9.54-9.06-17.34-13.63-22.43a119.89,119.89,0,0,0-21.54-18.77q-3.54-2.44-7.53-5h0c-15.78-9.94-32.32-19-58.43-25.48-.06,0,.06,0,0,0S279.19,95.84,250,95.84s-57.65-8.75-57.65-8.75.06,0,0,0c-26.11,6.46-42.65,15.54-58.44,25.48h0c-2.65,1.67-5.17,3.33-7.52,5a119.54,119.54,0,0,0-21.54,18.77c-4.57,5.09-9.17,12.89-13.63,22.43,0,0,28.74,63.85,32.48,89.39,2,13.3,2.5,44.9,2.64,64.07.07,9.26,0,15.62,0,15.62v.33c.11,3.62.94,4.44,7.49,188.73a1.47,1.47,0,0,0,.48,1c10.83,9.87,97.34,16,115.63,16"/>
    </g>
    <g id="_-3" data-name="-3">
      <path id="_-3-2" data-name="-3" class="cls-1" d="M250,518.9c18.3,0,104.8-6.14,115.63-16a1.39,1.39,0,0,0,.48-1c6.56-184.29,7.39-170.11,7.5-173.73v-.33s0-6.36.05-15.62c.14-19.17.68-50.77,2.64-64.07,3.74-25.54,32.48-89.39,32.48-89.39-4.46-9.54-9.06-17.34-13.63-22.43a119.89,119.89,0,0,0-21.54-18.77q-3.54-2.44-7.53-5h0c-15.78-9.94-32.32-19-58.43-25.48-.06,0,.06,0,0,0S279.19,95.84,250,95.84s-57.65-8.75-57.65-8.75.06,0,0,0c-26.11,6.46-42.65,15.54-58.44,25.48h0c-2.65,1.67-5.17,3.33-7.52,5a119.54,119.54,0,0,0-21.54,18.77c-4.57,5.09-9.17,12.89-13.63,22.43,0,0,28.74,63.85,32.48,89.39,2,13.3,2.5,44.9,2.64,64.07.07,9.26,0,15.62,0,15.62v.33c.11,3.62.94-10.56,7.49,173.73a1.47,1.47,0,0,0,.48,1c10.83,9.87,97.34,16,115.63,16"/>
    </g>
  </g>
  <g id="SLEEVES">
    <g id="_2-3" data-name="+2">
      <g id="R_2" data-name="R+2">
        <path class="cls-1" d="M373.61,357.81s0-6.36.05-15.62c.15-19.17.69-80.77,2.64-94.07,3.75-25.54,32.49-89.39,32.49-89.39h0c19.42,41.58,36.07,146.24,35.14,174.21v.31a2.21,2.21,0,0,1-1.53,2L373.94,357.7"/>
        <path class="cls-1" d="M126.33,357.81s0-6.36,0-15.62c-.14-19.17-.68-80.77-2.63-94.07-3.75-25.54-32.49-89.39-32.49-89.39h0C71.74,200.31,55.09,305,56,332.94v.31a2.21,2.21,0,0,0,1.53,2L126,357.7"/>
      </g>
    </g>
    <g id="_1-3" data-name="+1">
      <g id="R_1" data-name="R+1">
        <path class="cls-1" d="M373.61,342.81s0-6.36.05-15.62c.15-19.17.69-65.77,2.64-79.07,3.75-25.54,32.49-89.39,32.49-89.39h0c19.42,41.58,36.07,131.24,35.14,159.21v.31a2.21,2.21,0,0,1-1.53,2L373.94,342.7"/>
        <path class="cls-1" d="M126.33,342.81s0-6.36,0-15.62c-.14-19.17-.68-65.77-2.63-79.07-3.75-25.54-32.49-89.39-32.49-89.39h0C71.74,200.31,55.09,290,56,317.94v.31a2.21,2.21,0,0,0,1.53,2L126,342.7"/>
      </g>
    </g>
    <g id="_0-3" data-name="+0">
      <g id="R_0" data-name="R+0">
        <path class="cls-1" d="M373.61,327.81s0-6.36.05-15.62c.15-19.17.69-50.77,2.64-64.07,3.75-25.54,32.49-89.39,32.49-89.39h0c19.42,41.58,36.07,116.24,35.14,144.21v.31a2.21,2.21,0,0,1-1.53,2L373.94,327.7"/>
        <path class="cls-1" d="M126.33,327.81s0-6.36,0-15.62c-.14-19.17-.68-50.77-2.63-64.07-3.75-25.54-32.49-89.39-32.49-89.39h0C71.74,200.31,55.09,275,56,302.94v.31a2.21,2.21,0,0,0,1.53,2L126,327.7"/>
      </g>
    </g>
    <g id="_-1-3" data-name="-1">
      <g id="R-1">
        <path class="cls-1" d="M373.61,312.81s0-6.36.05-15.62c.15-19.17.69-35.77,2.64-49.07,3.75-25.54,32.49-89.39,32.49-89.39h0c19.42,41.58,36.07,101.24,35.14,129.21v.31a2.21,2.21,0,0,1-1.53,2L373.94,312.7"/>
        <path class="cls-1" d="M126.33,312.81s0-6.36,0-15.62c-.14-19.17-.68-35.77-2.63-49.07-3.75-25.54-32.49-89.39-32.49-89.39h0C71.74,200.31,55.09,260,56,287.94v.31a2.21,2.21,0,0,0,1.53,2L126,312.7"/>
      </g>
    </g>
    <g id="_-2-3" data-name="-2">
      <g id="R-2">
        <path class="cls-1" d="M373.61,297.81s0-6.36.05-15.62c.15-19.17.69-20.77,2.64-34.07,3.75-25.54,32.49-89.39,32.49-89.39h0c19.42,41.58,36.07,86.24,35.14,114.21v.31a2.21,2.21,0,0,1-1.53,2L373.94,297.7"/>
        <path class="cls-1" d="M126.33,297.81s0-6.36,0-15.62c-.14-19.17-.68-20.77-2.63-34.07-3.75-25.54-32.49-89.39-32.49-89.39h0C71.74,200.31,55.09,245,56,272.94v.31a2.21,2.21,0,0,0,1.53,2L126,297.7"/>
      </g>
    </g>
  </g>
  <g id="COLLAR">
    <g id="_3_collar" data-name="3 collar">
      <path id="_3_collar-2" data-name="3 collar" class="cls-2" d="M250.39,107c21.21,0,51.9-7.77,68.43-16.69,0,0-12.39-6.85-17.43-8.09-3.54-.1-20.49,8.11-51.27,8.11s-47.74-8.21-51.28-8.11c-5,1.24-17.43,8.09-17.43,8.09C197.94,99.19,228.63,107,249.85,107Z"/>
    </g>
    <g id="_2_collar" data-name="2 collar">
      <path id="_2_collar-2" data-name="2 collar" class="cls-2" d="M250.12,93.89c-30.62,0-48.75-9.11-53.28-9.11-5,1.24-15.6,5.49-15.6,5.49,16.53,8.92,47.39,16.28,68.61,16.28h.54c21.21,0,52.07-7.36,68.61-16.28,0,0-10.57-4.25-15.61-5.49-4.53,0-22.66,9.11-53.27,9.11"/>
    </g>
    <g id="_1_collar" data-name="1 collar">
      <path id="_1_collar-2" data-name="1 collar" class="cls-3" d="M249.89,106h0c-24.43,0-50.09-7.33-68.65-15.69a102.59,102.59,0,0,1,12-4.18c2.81,0,24.58,9.75,56.65,9.75s53.84-9.75,56.66-9.75a102.59,102.59,0,0,1,12,4.18C300.09,98.63,274.43,106,250,106h-.11Z"/>
    </g>
  </g>
  <g id="Logo">
    <g>
      <g>
        <g>
          <path d="M250.25,510.79a3.91,3.91,0,0,1,2.8,1,3.61,3.61,0,0,1,.56,4.47,3.61,3.61,0,0,1-3.35,1.68,3.9,3.9,0,0,1-2.78-1,3.45,3.45,0,0,1-.84-1.25,3.55,3.55,0,0,1-.25-1.34,3.6,3.6,0,0,1,.52-1.9A3.64,3.64,0,0,1,250.25,510.79Zm0,1.16a2.51,2.51,0,0,0-1.7.59,2.44,2.44,0,0,0,0,3.61,2.74,2.74,0,0,0,3.4,0,2.22,2.22,0,0,0,.61-.84,2.36,2.36,0,0,0,.2-.93,2.26,2.26,0,0,0-.81-1.84A2.6,2.6,0,0,0,250.26,512Z"/>
          <path d="M254.22,514.39a3.62,3.62,0,0,1-.53,1.89,3.74,3.74,0,0,1-3.43,1.71,4,4,0,0,1-2.84-1,3.66,3.66,0,0,1-.86-1.28,3.71,3.71,0,0,1-.26-1.37,3.61,3.61,0,0,1,.54-1.94,3.72,3.72,0,0,1,3.41-1.7h0a4,4,0,0,1,2.86,1A3.51,3.51,0,0,1,254.22,514.39Zm-7.75,0a3.59,3.59,0,0,0,.25,1.31,3.52,3.52,0,0,0,.81,1.22,3.88,3.88,0,0,0,2.73.94,3.56,3.56,0,0,0,3.28-1.63,3.56,3.56,0,0,0-.55-4.37,3.89,3.89,0,0,0-2.74-.94A3.57,3.57,0,0,0,247,512.5,3.48,3.48,0,0,0,246.47,514.35Zm6.38,0a2.5,2.5,0,0,1-.83,1.84,2.62,2.62,0,0,1-1.75.6,2.59,2.59,0,0,1-1.76-.6,2.33,2.33,0,0,1-.84-1.87,2.36,2.36,0,0,1,.84-1.88,2.59,2.59,0,0,1,1.75-.61h0a2.73,2.73,0,0,1,1.75.61A2.35,2.35,0,0,1,252.85,514.38Zm-5,0a2.17,2.17,0,0,0,.78,1.74,2.46,2.46,0,0,0,1.65.56,2.43,2.43,0,0,0,1.63-.56,2.24,2.24,0,0,0,.6-.82,2.32,2.32,0,0,0,.18-.89,2.19,2.19,0,0,0-.78-1.78,2.47,2.47,0,0,0-1.64-.56h0a2.43,2.43,0,0,0-1.64.56A2.19,2.19,0,0,0,247.84,514.35Z"/>
        </g>
        <g>
          <line x1="295.02" y1="514.35" x2="246.86" y2="514.35"/>
          <rect x="246.86" y="513.83" width="48.16" height="1.03"/>
        </g>
      </g>
      <g>
        <g>
          <path d="M253.09,512.45a3.6,3.6,0,0,1,.52,1.9,3.55,3.55,0,0,1-.25,1.34,3.45,3.45,0,0,1-.84,1.25,3.9,3.9,0,0,1-2.78,1,3.61,3.61,0,0,1-3.35-1.68,3.61,3.61,0,0,1,.56-4.47,3.91,3.91,0,0,1,2.8-1A3.64,3.64,0,0,1,253.09,512.45Zm-5.05.09a2.26,2.26,0,0,0-.81,1.84,2.36,2.36,0,0,0,.2.93,2.22,2.22,0,0,0,.61.84,2.74,2.74,0,0,0,3.4,0,2.44,2.44,0,0,0,0-3.61,2.51,2.51,0,0,0-1.7-.59A2.6,2.6,0,0,0,248,512.54Z"/>
          <path d="M246.89,511.7a4,4,0,0,1,2.86-1h0a3.72,3.72,0,0,1,3.41,1.7,3.61,3.61,0,0,1,.54,1.94,3.71,3.71,0,0,1-.26,1.37,3.66,3.66,0,0,1-.86,1.28,4,4,0,0,1-2.84,1,3.74,3.74,0,0,1-3.43-1.71,3.62,3.62,0,0,1-.53-1.89A3.51,3.51,0,0,1,246.89,511.7Zm6.13.8a3.57,3.57,0,0,0-3.27-1.62,3.89,3.89,0,0,0-2.74.94,3.56,3.56,0,0,0-.55,4.37,3.56,3.56,0,0,0,3.28,1.63,3.88,3.88,0,0,0,2.73-.94,3.52,3.52,0,0,0,.81-1.22,3.59,3.59,0,0,0,.25-1.31A3.48,3.48,0,0,0,253,512.5Zm-5,0a2.73,2.73,0,0,1,1.75-.61h0a2.59,2.59,0,0,1,1.75.61,2.36,2.36,0,0,1,.84,1.88,2.33,2.33,0,0,1-.84,1.87,2.59,2.59,0,0,1-1.76.6,2.62,2.62,0,0,1-1.75-.6,2.52,2.52,0,0,1,0-3.75Zm3.39.13a2.43,2.43,0,0,0-1.64-.56h0a2.47,2.47,0,0,0-1.64.56,2.19,2.19,0,0,0-.78,1.78,2.32,2.32,0,0,0,.18.89,2.24,2.24,0,0,0,.6.82,2.43,2.43,0,0,0,1.63.56,2.46,2.46,0,0,0,1.65-.56,2.34,2.34,0,0,0,0-3.49Z"/>
        </g>
        <g>
          <line x1="204.98" y1="514.35" x2="253.14" y2="514.35"/>
          <rect x="204.98" y="513.83" width="48.16" height="1.03"/>
        </g>
      </g>
    </g>
  </g>
</svg>
