<svg xmlns="http://www.w3.org/2000/svg" viewBox="0 0 500 647.06">
  <defs>
    <style>
      .cls-1 {
        fill: #333;
        stroke: #231f20;
        stroke-miterlimit: 10;
        stroke-width: 0.75px;
      }
    </style>
  </defs>
  <title>OVR STR</title>
  <g id="TORSO_STRAIGHT" data-name="TORSO STRAIGHT">
    <g id="_3" data-name="+3">
      <g id="_3-2" data-name="+3">
        <path class="cls-1" d="M337,172c0-41.63-11.66-60.61-41.18-85.53L220.19,108.2c-39.79,62.24-41.75,86.86-42.52,100C174.9,255.47,167.5,492.53,157.93,597c13.7,10.89,89.73,10.89,89.73,10.89s74.46,0,92.88-6.46C345.43,474.07,337,172,337,172Z"/>
        <line class="cls-1" x1="252.03" y1="277.8" x2="247.66" y2="607.87"/>
        <line class="cls-1" x1="264.57" y1="105.4" x2="264.56" y2="161.65"/>
      </g>
    </g>
    <g id="_2" data-name="+2">
      <g id="_2-2" data-name="+2">
        <path class="cls-1" d="M337,172c0-41.63-11.66-60.61-41.18-85.53L220.19,108.2c-39.79,62.24-41.75,86.86-42.52,100C174.9,255.47,167.5,477.53,157.93,582c13.7,10.89,89.73,10.89,89.73,10.89s74.46,0,92.88-6.46C345.43,459.07,337,172,337,172Z"/>
        <line class="cls-1" x1="252.03" y1="277.8" x2="247.66" y2="592.87"/>
        <line class="cls-1" x1="264.57" y1="105.4" x2="264.56" y2="161.65"/>
      </g>
    </g>
    <g id="_1" data-name="+1">
      <g id="_1-2" data-name="+1">
        <path class="cls-1" d="M337,172c0-41.63-11.66-60.61-41.18-85.53L220.19,108.2c-39.79,62.24-41.75,86.86-42.52,100C174.9,255.47,167.5,462.53,157.93,567c13.7,10.89,89.73,10.89,89.73,10.89s74.46,0,92.88-6.46C345.43,444.07,337,172,337,172Z"/>
        <line class="cls-1" x1="252.03" y1="277.8" x2="247.66" y2="577.87"/>
        <line class="cls-1" x1="264.57" y1="105.4" x2="264.56" y2="161.65"/>
      </g>
    </g>
    <g id="_0" data-name="+0">
      <g id="_0-2" data-name="+0">
        <path class="cls-1" d="M337,172c0-41.63-11.66-60.61-41.18-85.53L220.19,108.2c-39.79,62.24-41.75,86.86-42.52,100C174.9,255.47,167.5,447.53,157.93,552c13.7,10.89,89.73,10.89,89.73,10.89s74.46,0,92.88-6.46C345.43,429.07,337,172,337,172Z"/>
        <line class="cls-1" x1="252.03" y1="277.8" x2="247.66" y2="562.87"/>
        <line class="cls-1" x1="264.57" y1="105.4" x2="264.56" y2="161.65"/>
      </g>
    </g>
    <g id="_-1" data-name="-1">
      <g id="_-1-2" data-name="-1">
        <path class="cls-1" d="M337,172c0-41.63-11.66-60.61-41.18-85.53L220.19,108.2c-39.79,62.24-41.75,86.86-42.52,100C174.9,255.47,167.5,432.53,157.93,537c13.7,10.89,89.73,10.89,89.73,10.89s74.46,0,92.88-6.46C345.43,414.07,337,172,337,172Z"/>
        <line class="cls-1" x1="252.03" y1="277.8" x2="247.66" y2="547.87"/>
        <line class="cls-1" x1="264.57" y1="105.4" x2="264.56" y2="161.65"/>
      </g>
    </g>
    <g id="_-2" data-name="-2">
      <g id="_-2-2" data-name="-2">
        <path class="cls-1" d="M337,172c0-41.63-11.66-60.61-41.18-85.53L220.19,108.2c-39.79,62.24-41.75,86.86-42.52,100C174.9,255.47,167.5,417.53,157.93,522c13.7,10.89,89.73,10.89,89.73,10.89s74.46,0,92.88-6.46C345.43,399.07,337,172,337,172Z"/>
        <line class="cls-1" x1="252.03" y1="277.8" x2="247.66" y2="532.87"/>
        <line class="cls-1" x1="264.57" y1="105.4" x2="264.56" y2="161.65"/>
      </g>
    </g>
    <g id="_-3" data-name="-3">
      <g id="_-3-2" data-name="-3">
        <path class="cls-1" d="M337,172c0-41.63-11.66-60.61-41.18-85.53L220.19,108.2c-39.79,62.24-41.75,86.86-42.52,100C174.9,255.47,167.5,402.53,157.93,507c13.7,10.89,89.73,10.89,89.73,10.89s74.46,0,92.88-6.46C345.43,384.07,337,172,337,172Z"/>
        <line class="cls-1" x1="252.03" y1="277.8" x2="247.66" y2="517.87"/>
        <line class="cls-1" x1="264.57" y1="105.4" x2="264.56" y2="161.65"/>
      </g>
    </g>
  </g>
  <g id="SLEEVES">
    <g id="_2-3" data-name="+2">
      <path id="_2-4" data-name="+2" class="cls-1" d="M299.31,344.46s15.2-108.48,20.07-134.2c3.64-42.62-51.48-48.45-54.84-48.61-7.88-.37-56.5,1.84-59.86,35.65-3.38,23.63-7.52,133.39-7.52,133.39Z"/>
    </g>
    <g id="_1-3" data-name="+1">
      <path id="_1-4" data-name="+1" class="cls-1" d="M299.31,329.46s15.2-93.48,20.07-119.2c3.64-42.62-51.48-48.45-54.84-48.61-7.88-.37-56.5,1.84-59.86,35.65-3.38,23.63-7.52,118.39-7.52,118.39Z"/>
    </g>
    <g id="_0-3" data-name="+0">
      <path id="_0-4" data-name="+0" class="cls-1" d="M299.31,314.46s15.2-78.48,20.07-104.2c3.64-42.62-51.48-48.45-54.84-48.61-7.88-.37-56.5,1.84-59.86,35.65-3.38,23.63-7.52,103.39-7.52,103.39Z"/>
    </g>
    <g id="_-1-3" data-name="-1">
      <path id="_-1-4" data-name="-1" class="cls-1" d="M299.31,299.46s15.2-63.48,20.07-89.2c3.64-42.62-51.48-48.45-54.84-48.61-7.88-.37-56.5,1.84-59.86,35.65-3.38,23.63-7.52,88.39-7.52,88.39Z"/>
    </g>
    <g id="_-2-3" data-name="-2">
      <path id="_-2-4" data-name="-2" class="cls-1" d="M299.31,284.46s15.2-48.48,20.07-74.2c3.64-42.62-51.48-48.45-54.84-48.61-7.88-.37-56.5,1.84-59.86,35.65-3.38,23.63-7.52,73.39-7.52,73.39Z"/>
    </g>
  </g>
  <g id="COLLAR">
    <g id="_3_collar" data-name="3 collar">
      <path id="_3_collar-2" data-name="3 collar" class="cls-1" d="M304.16,94l-91.61,26.38c2.39-3.93,8-14.46,10.73-18.69l68.89-19.5C295.19,84.73,301.46,91.51,304.16,94Z"/>
    </g>
    <g id="_2_collar" data-name="2 collar">
      <path id="_2_collar-2" data-name="2 collar" class="cls-1" d="M304.16,94l-91.61,26.38c2.39-3.93,7-11.46,9.73-15.69l70.89-20.5C296.19,86.73,301.46,91.51,304.16,94Z"/>
    </g>
    <g id="_1_collar" data-name="1 collar">
      <path id="_1_collar-2" data-name="1 collar" class="cls-1" d="M304.16,94c-2.7-2.48-5.34-5-8.35-7.53L220.19,108.2q-4.06,6.31-7.64,12.18l.19-.06-.19.06,5.41-1.55Z"/>
    </g>
  </g>
</svg>
