<svg xmlns="http://www.w3.org/2000/svg" viewBox="0 0 500 647.06">
  <defs>
    <style>
      .cls-1 {
        fill: #333;
        stroke: #231f20;
        stroke-miterlimit: 10;
        stroke-width: 0.75px;
      }
    </style>
  </defs>
  <title>OVR TAP</title>
  <g id="TORSO_TAPERED" data-name="TORSO TAPERED">
    <g id="_3" data-name="+3">
      <g id="_3-2" data-name="+3">
        <path class="cls-1" d="M337,171.79c0-41.63-11.66-60.61-41.18-85.53L220.19,108c-39.79,62.24-41.75,86.86-42.52,100-2.77,47.28-10.17,289.34-19.74,393.79C172,615.2,247.66,560,247.66,560s64.45,67.18,92.88,55.2C345.43,487.86,337,171.79,337,171.79Z"/>
        <line class="cls-1" x1="252.03" y1="277.59" x2="247.66" y2="560"/>
        <line class="cls-1" x1="264.57" y1="105.19" x2="264.56" y2="161.44"/>
      </g>
    </g>
    <g id="_2" data-name="+2">
      <g id="_2-2" data-name="+2">
        <path class="cls-1" d="M337,171.79c0-41.63-11.66-60.61-41.18-85.53L220.19,108c-39.79,62.24-41.75,86.86-42.52,100-2.77,47.28-10.17,274.34-19.74,378.79C172,600.2,247.66,545,247.66,545s64.45,67.18,92.88,55.2C345.43,472.86,337,171.79,337,171.79Z"/>
        <line class="cls-1" x1="252.03" y1="277.59" x2="247.66" y2="545"/>
        <line class="cls-1" x1="264.57" y1="105.19" x2="264.56" y2="161.44"/>
      </g>
    </g>
    <g id="_1" data-name="+1">
      <g id="_1-2" data-name="+1">
        <path class="cls-1" d="M337,171.79c0-41.63-11.66-60.61-41.18-85.53L220.19,108c-39.79,62.24-41.75,86.86-42.52,100-2.77,47.28-10.17,259.34-19.74,363.79C172,585.2,247.66,530,247.66,530s64.45,67.18,92.88,55.2C345.43,457.86,337,171.79,337,171.79Z"/>
        <line class="cls-1" x1="252.03" y1="277.59" x2="247.66" y2="530"/>
        <line class="cls-1" x1="264.57" y1="105.19" x2="264.56" y2="161.44"/>
      </g>
    </g>
    <g id="_0" data-name="+0">
      <g id="_0-2" data-name="+0">
        <path class="cls-1" d="M337,171.79c0-41.63-11.66-60.61-41.18-85.53L220.19,108c-39.79,62.24-41.75,86.86-42.52,100-2.77,47.28-10.17,244.34-19.74,348.79C172,570.2,247.66,515,247.66,515s64.45,67.18,92.88,55.2C345.43,442.86,337,171.79,337,171.79Z"/>
        <line class="cls-1" x1="252.03" y1="277.59" x2="247.66" y2="515"/>
        <line class="cls-1" x1="264.57" y1="105.19" x2="264.56" y2="161.44"/>
      </g>
    </g>
    <g id="_-1" data-name="-1">
      <g id="_-1-2" data-name="-1">
        <path class="cls-1" d="M337,171.79c0-41.63-11.66-60.61-41.18-85.53L220.19,108c-39.79,62.24-41.75,86.86-42.52,100-2.77,47.28-10.17,229.34-19.74,333.79C172,555.2,247.66,500,247.66,500s64.45,67.18,92.88,55.2C345.43,427.86,337,171.79,337,171.79Z"/>
        <line class="cls-1" x1="252.03" y1="277.59" x2="247.66" y2="500"/>
        <line class="cls-1" x1="264.57" y1="105.19" x2="264.56" y2="161.44"/>
      </g>
    </g>
    <g id="_-2" data-name="-2">
      <g id="_-2-2" data-name="-2">
        <path class="cls-1" d="M337,171.79c0-41.63-11.66-60.61-41.18-85.53L220.19,108c-39.79,62.24-41.75,86.86-42.52,100-2.77,47.28-10.17,214.34-19.74,318.79C172,540.2,247.66,485,247.66,485s64.45,67.18,92.88,55.2C345.43,412.86,337,171.79,337,171.79Z"/>
        <line class="cls-1" x1="252.03" y1="277.59" x2="247.66" y2="485"/>
        <line class="cls-1" x1="264.57" y1="105.19" x2="264.56" y2="161.44"/>
      </g>
    </g>
    <g id="_-3" data-name="-3">
      <g id="_-3-2" data-name="-3">
        <path class="cls-1" d="M337,171.79c0-41.63-11.66-60.61-41.18-85.53L220.19,108c-39.79,62.24-41.75,86.86-42.52,100-2.77,47.28-10.17,199.34-19.74,303.79C172,525.2,247.66,470,247.66,470s64.45,67.18,92.88,55.2C345.43,397.86,337,171.79,337,171.79Z"/>
        <line class="cls-1" x1="252.03" y1="277.59" x2="247.66" y2="470"/>
        <line class="cls-1" x1="264.57" y1="105.19" x2="264.56" y2="161.44"/>
      </g>
    </g>
  </g>
  <g id="SLEEVES">
    <g id="_2-3" data-name="+2">
      <path id="_2-4" data-name="+2" class="cls-1" d="M299.31,344.46s15.2-108.48,20.07-134.2c3.64-42.62-51.48-48.45-54.84-48.61-7.88-.37-56.5,1.84-59.86,35.65-3.38,23.63-7.52,133.39-7.52,133.39Z"/>
    </g>
    <g id="_1-3" data-name="+1">
      <path id="_1-4" data-name="+1" class="cls-1" d="M299.31,329.46s15.2-93.48,20.07-119.2c3.64-42.62-51.48-48.45-54.84-48.61-7.88-.37-56.5,1.84-59.86,35.65-3.38,23.63-7.52,118.39-7.52,118.39Z"/>
    </g>
    <g id="_0-3" data-name="+0">
      <path id="_0-4" data-name="+0" class="cls-1" d="M299.31,314.46s15.2-78.48,20.07-104.2c3.64-42.62-51.48-48.45-54.84-48.61-7.88-.37-56.5,1.84-59.86,35.65-3.38,23.63-7.52,103.39-7.52,103.39Z"/>
    </g>
    <g id="_-1-3" data-name="-1">
      <path id="_-1-4" data-name="-1" class="cls-1" d="M299.31,299.46s15.2-63.48,20.07-89.2c3.64-42.62-51.48-48.45-54.84-48.61-7.88-.37-56.5,1.84-59.86,35.65-3.38,23.63-7.52,88.39-7.52,88.39Z"/>
    </g>
    <g id="_-2-3" data-name="-2">
      <path id="_-2-4" data-name="-2" class="cls-1" d="M299.31,284.46s15.2-48.48,20.07-74.2c3.64-42.62-51.48-48.45-54.84-48.61-7.88-.37-56.5,1.84-59.86,35.65-3.38,23.63-7.52,73.39-7.52,73.39Z"/>
    </g>
  </g>
  <g id="COLLAR">
    <g id="_3_collar" data-name="3 collar">
      <path id="_3_collar-2" data-name="3 collar" class="cls-1" d="M304.15,94l-91.6,26.38c2.39-3.93,8-14.46,10.72-18.69l68.9-19.5C295.18,84.73,301.45,91.51,304.15,94Z"/>
    </g>
    <g id="_2_collar" data-name="2 collar">
      <path id="_2_collar-2" data-name="2 collar" class="cls-1" d="M304.15,94l-91.6,26.38c2.39-3.93,7-11.46,9.72-15.69l70.9-20.5C296.18,86.73,301.45,91.51,304.15,94Z"/>
    </g>
    <g id="_1_collar" data-name="1 collar">
      <path id="_1_collar-2" data-name="1 collar" class="cls-1" d="M304.15,94c-2.7-2.48-5.33-5-8.35-7.53L220.19,108.2q-4.06,6.31-7.64,12.18l.19-.06-.19.06,5.4-1.55Z"/>
    </g>
  </g>
</svg>
